<mxfile host="app.diagrams.net" modified="2023-06-21T11:28:05.897Z" agent="Mozilla/5.0 (Windows NT 10.0; Win64; x64) AppleWebKit/537.36 (KHTML, like Gecko) Chrome/114.0.0.0 Safari/537.36 Edg/114.0.1823.51" etag="c0YqhNqikwmNirOze5OV" version="21.5.0" type="device">
  <diagram id="kgpKYQtTHZ0yAKxKKP6v" name="Page-1">
    <mxGraphModel dx="657" dy="379" grid="1" gridSize="10" guides="1" tooltips="1" connect="1" arrows="1" fold="1" page="1" pageScale="1" pageWidth="850" pageHeight="1100" math="0" shadow="0">
      <root>
        <mxCell id="0" />
        <mxCell id="1" parent="0" />
        <mxCell id="3nuBFxr9cyL0pnOWT2aG-1" value=":FMU 1" style="shape=umlLifeline;perimeter=lifelinePerimeter;container=1;collapsible=0;recursiveResize=0;rounded=0;shadow=0;strokeWidth=1;" parent="1" vertex="1">
          <mxGeometry x="110" y="80" width="100" height="290" as="geometry" />
        </mxCell>
        <mxCell id="3nuBFxr9cyL0pnOWT2aG-2" value="" style="points=[];perimeter=orthogonalPerimeter;rounded=0;shadow=0;strokeWidth=1;" parent="3nuBFxr9cyL0pnOWT2aG-1" vertex="1">
          <mxGeometry x="45" y="65" width="10" height="215" as="geometry" />
        </mxCell>
        <mxCell id="3nuBFxr9cyL0pnOWT2aG-5" value=":Bus Simulation" style="shape=umlLifeline;perimeter=lifelinePerimeter;container=1;collapsible=0;recursiveResize=0;rounded=0;shadow=0;strokeWidth=1;" parent="1" vertex="1">
          <mxGeometry x="300" y="80" width="130" height="290" as="geometry" />
        </mxCell>
        <mxCell id="3nuBFxr9cyL0pnOWT2aG-6" value="" style="points=[];perimeter=orthogonalPerimeter;rounded=0;shadow=0;strokeWidth=1;" parent="3nuBFxr9cyL0pnOWT2aG-5" vertex="1">
          <mxGeometry x="60" y="65" width="10" height="215" as="geometry" />
        </mxCell>
        <mxCell id="eGcspzg-jYoVY6njO30K-8" value="Transmit" style="verticalAlign=bottom;endArrow=block;shadow=0;strokeWidth=1;entryX=-0.254;entryY=0.261;entryDx=0;entryDy=0;entryPerimeter=0;" parent="3nuBFxr9cyL0pnOWT2aG-5" edge="1">
          <mxGeometry relative="1" as="geometry">
            <mxPoint x="70" y="121" as="sourcePoint" />
            <mxPoint x="267.46000000000004" y="121.11500000000001" as="targetPoint" />
          </mxGeometry>
        </mxCell>
        <mxCell id="ikn1xNM__fGQJB6K_NLL-1" value="Transmit" style="verticalAlign=bottom;endArrow=block;shadow=0;strokeWidth=1;" parent="3nuBFxr9cyL0pnOWT2aG-5" edge="1">
          <mxGeometry relative="1" as="geometry">
            <mxPoint x="271.5" y="179.36" as="sourcePoint" />
            <mxPoint x="71" y="179.36" as="targetPoint" />
          </mxGeometry>
        </mxCell>
        <mxCell id="ikn1xNM__fGQJB6K_NLL-2" value="Bus Error(Is Sender = TRUE,&#xa;Error Flag = SECONDARY_ERROR_FLAG)" style="verticalAlign=bottom;endArrow=block;entryX=-0.261;entryY=0.724;shadow=0;strokeWidth=1;fontSize=8;spacingLeft=-7;entryDx=0;entryDy=0;entryPerimeter=0;exitX=0.955;exitY=0.722;exitDx=0;exitDy=0;exitPerimeter=0;" parent="3nuBFxr9cyL0pnOWT2aG-5" edge="1">
          <mxGeometry relative="1" as="geometry">
            <mxPoint x="69.54999999999995" y="231.23000000000002" as="sourcePoint" />
            <mxPoint x="267.3900000000001" y="231.65999999999997" as="targetPoint" />
          </mxGeometry>
        </mxCell>
        <mxCell id="-VYj8l_xqPbd0REhv1_3-2" value="Bus Error(Is Sender = FALSE,&#xa;Error Flag = PRIMARY_ERROR_FLAG)" style="verticalAlign=bottom;endArrow=none;entryX=0;entryY=0;shadow=0;strokeWidth=1;fontSize=8;startArrow=block;startFill=1;endFill=0;spacingBottom=0;spacingLeft=7;exitX=1.104;exitY=0.815;exitDx=0;exitDy=0;exitPerimeter=0;" parent="3nuBFxr9cyL0pnOWT2aG-5" edge="1">
          <mxGeometry relative="1" as="geometry">
            <mxPoint x="-133.96000000000004" y="261.225" as="sourcePoint" />
            <mxPoint x="60" y="261" as="targetPoint" />
          </mxGeometry>
        </mxCell>
        <mxCell id="eGcspzg-jYoVY6njO30K-1" value=":FMU 2" style="shape=umlLifeline;perimeter=lifelinePerimeter;container=1;collapsible=0;recursiveResize=0;rounded=0;shadow=0;strokeWidth=1;" parent="1" vertex="1">
          <mxGeometry x="524" y="80" width="100" height="290" as="geometry" />
        </mxCell>
        <mxCell id="eGcspzg-jYoVY6njO30K-2" value="" style="points=[];perimeter=orthogonalPerimeter;rounded=0;shadow=0;strokeWidth=1;" parent="eGcspzg-jYoVY6njO30K-1" vertex="1">
          <mxGeometry x="45" y="65" width="10" height="215" as="geometry" />
        </mxCell>
        <mxCell id="Ct78ly6aTw_c9TOjw8sM-1" value="Transmit" style="verticalAlign=bottom;endArrow=block;entryX=-0.089;entryY=0.107;shadow=0;strokeWidth=1;entryDx=0;entryDy=0;entryPerimeter=0;exitX=1.104;exitY=0.105;exitDx=0;exitDy=0;exitPerimeter=0;" parent="1" source="3nuBFxr9cyL0pnOWT2aG-2" target="3nuBFxr9cyL0pnOWT2aG-6" edge="1">
          <mxGeometry relative="1" as="geometry">
            <mxPoint x="176" y="167" as="sourcePoint" />
            <mxPoint x="361" y="167" as="targetPoint" />
          </mxGeometry>
        </mxCell>
        <mxCell id="MDTXqJ2sE1CeRZtA75QT-1" value="Confirm" style="verticalAlign=bottom;endArrow=block;shadow=0;strokeWidth=1;exitX=0.026;exitY=0.372;exitDx=0;exitDy=0;exitPerimeter=0;entryX=1.188;entryY=0.374;entryDx=0;entryDy=0;entryPerimeter=0;" parent="1" edge="1">
          <mxGeometry relative="1" as="geometry">
            <mxPoint x="360.26" y="227.98000000000002" as="sourcePoint" />
            <mxPoint x="165.88" y="228.40999999999997" as="targetPoint" />
          </mxGeometry>
        </mxCell>
      </root>
    </mxGraphModel>
  </diagram>
</mxfile>
